<?xml version="1.0" encoding="utf-8"?>
<!-- Generator: Adobe Illustrator 16.0.0, SVG Export Plug-In . SVG Version: 6.00 Build 0)  -->
<!DOCTYPE svg PUBLIC "-//W3C//DTD SVG 1.0//EN" "http://www.w3.org/TR/2001/REC-SVG-20010904/DTD/svg10.dtd">
<svg version="1.0" id="Layer_1" xmlns="http://www.w3.org/2000/svg" xmlns:xlink="http://www.w3.org/1999/xlink" x="0px" y="0px"
	 width="800px" height="800px" viewBox="0 0 800 800" enable-background="new 0 0 800 800" xml:space="preserve">
<g>
	<g>
		<defs>
			<path id="SVGID_1_" d="M400.001,30.746c203.935,0,369.253,165.319,369.253,369.255c0,203.935-165.318,369.253-369.253,369.253
				c-203.936,0-369.255-165.318-369.255-369.253C30.746,196.065,196.065,30.746,400.001,30.746z"/>
		</defs>
		<clipPath id="SVGID_2_">
			<use xlink:href="#SVGID_1_"  overflow="visible"/>
		</clipPath>
		<g clip-path="url(#SVGID_2_)">
			<path fill="#DB4437" d="M89.368,30.746v453.176h165.277l145.355-251.765h369.253V30.746H89.368z"/>
			
				<linearGradient id="SVGID_3_" gradientUnits="userSpaceOnUse" x1="343.7397" y1="-801.7202" x2="1224.9169" y2="-286.9951" gradientTransform="matrix(0.25 0 0 -0.25 34.3398 111.54)">
				<stop  offset="0" style="stop-color:#A52714;stop-opacity:0.6"/>
				<stop  offset="0.66" style="stop-color:#A52714;stop-opacity:0"/>
			</linearGradient>
			<path fill="url(#SVGID_3_)" d="M89.368,30.746v453.176h165.277l145.355-251.765h369.253V30.746H89.368z"/>
		</g>
	</g>
	<g>
		<defs>
			<path id="SVGID_4_" d="M400.001,30.746c203.935,0,369.253,165.319,369.253,369.255c0,203.935-165.318,369.253-369.253,369.253
				c-203.936,0-369.255-165.318-369.255-369.253C30.746,196.065,196.065,30.746,400.001,30.746z"/>
		</defs>
		<clipPath id="SVGID_5_">
			<use xlink:href="#SVGID_4_"  overflow="visible"/>
		</clipPath>
		<path clip-path="url(#SVGID_5_)" fill="#3E2723" fill-opacity="0.15" d="M258.637,482.446L91.508,195.819l-2.435,4.196
			l165.908,284.496L258.637,482.446z"/>
	</g>
	<g>
		<defs>
			<path id="SVGID_6_" d="M400.001,30.746c203.935,0,369.253,165.319,369.253,369.255c0,203.935-165.318,369.253-369.253,369.253
				c-203.936,0-369.255-165.318-369.255-369.253C30.746,196.065,196.065,30.746,400.001,30.746z"/>
		</defs>
		<clipPath id="SVGID_7_">
			<use xlink:href="#SVGID_6_"  overflow="visible"/>
		</clipPath>
		<g clip-path="url(#SVGID_7_)">
			<path fill="#0F9D58" d="M30.746,769.254h351.503L545.387,606.1V483.922H254.646L30.746,99.9V769.254z"/>
			
				<linearGradient id="SVGID_8_" gradientUnits="userSpaceOnUse" x1="1712.2178" y1="-2303.4067" x2="733.1403" y2="-1729.9647" gradientTransform="matrix(0.25 0 0 -0.25 34.3398 111.54)">
				<stop  offset="0" style="stop-color:#055524;stop-opacity:0.4"/>
				<stop  offset="0.33" style="stop-color:#055524;stop-opacity:0"/>
			</linearGradient>
			<path fill="url(#SVGID_8_)" d="M30.746,769.254h351.503L545.387,606.1V483.922H254.646L30.746,99.9V769.254z"/>
		</g>
	</g>
	<g>
		<defs>
			<path id="SVGID_9_" d="M400.001,30.746c203.935,0,369.253,165.319,369.253,369.255c0,203.935-165.318,369.253-369.253,369.253
				c-203.936,0-369.255-165.318-369.255-369.253C30.746,196.065,196.065,30.746,400.001,30.746z"/>
		</defs>
		<clipPath id="SVGID_10_">
			<use xlink:href="#SVGID_9_"  overflow="visible"/>
		</clipPath>
		<path clip-path="url(#SVGID_10_)" fill="#263238" fill-opacity="0.15" d="M541.994,489.494l-3.491-1.999L377.422,769.254h4.827
			l159.86-279.629L541.994,489.494z"/>
	</g>
	<g>
		<defs>
			<path id="SVGID_11_" d="M400.001,30.746c203.935,0,369.253,165.319,369.253,369.255c0,203.935-165.318,369.253-369.253,369.253
				c-203.936,0-369.255-165.318-369.255-369.253C30.746,196.065,196.065,30.746,400.001,30.746z"/>
		</defs>
		<clipPath id="SVGID_12_">
			<use xlink:href="#SVGID_11_"  overflow="visible"/>
		</clipPath>
		<g clip-path="url(#SVGID_12_)">
			<g>
				<defs>
					<polygon id="SVGID_13_" points="30.746,769.254 382.249,769.254 545.387,606.1 545.387,483.922 254.646,483.922 30.746,99.9 
											"/>
				</defs>
				<clipPath id="SVGID_14_">
					<use xlink:href="#SVGID_13_"  overflow="visible"/>
				</clipPath>
				<g clip-path="url(#SVGID_14_)">
					<path fill="#FFCD40" d="M400.001,232.157l145.386,251.765L382.249,769.254h387.005V232.157H400.001z"/>
					
						<linearGradient id="SVGID_15_" gradientUnits="userSpaceOnUse" x1="1896.6104" y1="-378.4951" x2="2143.1538" y2="-1458.157" gradientTransform="matrix(0.25 0 0 -0.25 34.3398 111.54)">
						<stop  offset="0" style="stop-color:#EA6100;stop-opacity:0.3"/>
						<stop  offset="0.66" style="stop-color:#EA6100;stop-opacity:0"/>
					</linearGradient>
					<path fill="url(#SVGID_15_)" d="M400.001,232.157l145.386,251.765L382.249,769.254h387.005V232.157H400.001z"/>
				</g>
			</g>
			<g>
				<defs>
					<path id="SVGID_16_" d="M400.001,30.746c203.935,0,369.253,165.319,369.253,369.255c0,203.935-165.318,369.253-369.253,369.253
						c-203.936,0-369.255-165.318-369.255-369.253C30.746,196.065,196.065,30.746,400.001,30.746z"/>
				</defs>
				<clipPath id="SVGID_17_">
					<use xlink:href="#SVGID_16_"  overflow="visible"/>
				</clipPath>
				<g clip-path="url(#SVGID_17_)">
					<path fill="#FFCD40" d="M400.001,232.157l145.386,251.765L382.249,769.254h387.005V232.157H400.001z"/>
					
						<linearGradient id="SVGID_18_" gradientUnits="userSpaceOnUse" x1="1896.6104" y1="-378.4951" x2="2143.1538" y2="-1458.157" gradientTransform="matrix(0.25 0 0 -0.25 34.3398 111.54)">
						<stop  offset="0" style="stop-color:#EA6100;stop-opacity:0.3"/>
						<stop  offset="0.66" style="stop-color:#EA6100;stop-opacity:0"/>
					</linearGradient>
					<path fill="url(#SVGID_18_)" d="M400.001,232.157l145.386,251.765L382.249,769.254h387.005V232.157H400.001z"/>
				</g>
			</g>
			<g>
				<defs>
					<path id="SVGID_19_" d="M400.001,30.746c203.935,0,369.253,165.319,369.253,369.255c0,203.935-165.318,369.253-369.253,369.253
						c-203.936,0-369.255-165.318-369.255-369.253C30.746,196.065,196.065,30.746,400.001,30.746z"/>
				</defs>
				<clipPath id="SVGID_20_">
					<use xlink:href="#SVGID_19_"  overflow="visible"/>
				</clipPath>
				<g clip-path="url(#SVGID_20_)">
					<g>
						<defs>
							<polygon id="SVGID_21_" points="400.001,232.157 545.387,483.922 382.249,769.254 769.254,769.254 769.254,232.157 							
								"/>
						</defs>
						<clipPath id="SVGID_22_">
							<use xlink:href="#SVGID_21_"  overflow="visible"/>
						</clipPath>
						<g clip-path="url(#SVGID_22_)">
							<path fill="#DB4437" d="M89.368,30.746v453.176h165.277l145.355-251.765h369.253V30.746H89.368z"/>
							
								<linearGradient id="SVGID_23_" gradientUnits="userSpaceOnUse" x1="343.7397" y1="-801.7202" x2="1224.9169" y2="-286.9951" gradientTransform="matrix(0.25 0 0 -0.25 34.3398 111.54)">
								<stop  offset="0" style="stop-color:#A52714;stop-opacity:0.6"/>
								<stop  offset="0.66" style="stop-color:#A52714;stop-opacity:0"/>
							</linearGradient>
							<path fill="url(#SVGID_23_)" d="M89.368,30.746v453.176h165.277l145.355-251.765h369.253V30.746H89.368z"/>
						</g>
					</g>
					<g>
						<defs>
							<path id="SVGID_24_" d="M400.001,30.746c203.935,0,369.253,165.319,369.253,369.255
								c0,203.935-165.318,369.253-369.253,369.253c-203.936,0-369.255-165.318-369.255-369.253
								C30.746,196.065,196.065,30.746,400.001,30.746z"/>
						</defs>
						<clipPath id="SVGID_25_">
							<use xlink:href="#SVGID_24_"  overflow="visible"/>
						</clipPath>
						
							<radialGradient id="SVGID_26_" cx="1974.459" cy="-481.6001" r="1411.152" gradientTransform="matrix(0.25 0 0 -0.25 -109.6602 111.54)" gradientUnits="userSpaceOnUse">
							<stop  offset="0" style="stop-color:#3E2723;stop-opacity:0.2"/>
							<stop  offset="1" style="stop-color:#3E2723;stop-opacity:0"/>
						</radialGradient>
						<path clip-path="url(#SVGID_25_)" fill="url(#SVGID_26_)" d="M400.001,232.157v87.904l328.965-87.904H400.001z"/>
					</g>
					<g>
						<defs>
							<path id="SVGID_27_" d="M400.001,30.746c203.935,0,369.253,165.319,369.253,369.255
								c0,203.935-165.318,369.253-369.253,369.253c-203.936,0-369.255-165.318-369.255-369.253
								C30.746,196.065,196.065,30.746,400.001,30.746z"/>
						</defs>
						<clipPath id="SVGID_28_">
							<use xlink:href="#SVGID_27_"  overflow="visible"/>
						</clipPath>
						<g clip-path="url(#SVGID_28_)">
							<g>
								<defs>
									<polygon id="SVGID_29_" points="89.368,30.746 89.368,200.016 254.646,483.922 400.001,232.157 769.254,232.157 
										769.254,30.746 									"/>
								</defs>
								<clipPath id="SVGID_30_">
									<use xlink:href="#SVGID_29_"  overflow="visible"/>
								</clipPath>
								<g clip-path="url(#SVGID_30_)">
									<path fill="#0F9D58" d="M30.746,769.254h351.503L545.387,606.1V483.922H254.646L30.746,99.9V769.254z"/>
									
										<linearGradient id="SVGID_31_" gradientUnits="userSpaceOnUse" x1="1712.2178" y1="-2303.4067" x2="733.1403" y2="-1729.9647" gradientTransform="matrix(0.25 0 0 -0.25 34.3398 111.54)">
										<stop  offset="0" style="stop-color:#055524;stop-opacity:0.4"/>
										<stop  offset="0.33" style="stop-color:#055524;stop-opacity:0"/>
									</linearGradient>
									<path fill="url(#SVGID_31_)" d="M30.746,769.254h351.503L545.387,606.1V483.922H254.646L30.746,99.9V769.254z"/>
								</g>
							</g>
							<g>
								<defs>
									<path id="SVGID_32_" d="M400.001,30.746c203.935,0,369.253,165.319,369.253,369.255
										c0,203.935-165.318,369.253-369.253,369.253c-203.936,0-369.255-165.318-369.255-369.253
										C30.746,196.065,196.065,30.746,400.001,30.746z"/>
								</defs>
								<clipPath id="SVGID_33_">
									<use xlink:href="#SVGID_32_"  overflow="visible"/>
								</clipPath>
								
									<radialGradient id="SVGID_34_" cx="794.5068" cy="-356.9146" r="1309.9104" gradientTransform="matrix(0.25 0 0 -0.25 -109.6602 111.54)" gradientUnits="userSpaceOnUse">
									<stop  offset="0" style="stop-color:#3E2723;stop-opacity:0.2"/>
									<stop  offset="1" style="stop-color:#3E2723;stop-opacity:0"/>
								</radialGradient>
								<path clip-path="url(#SVGID_33_)" fill="url(#SVGID_34_)" d="M89.368,200.474l240.225,240.176l-74.947,43.272
									L89.368,200.474z"/>
							</g>
							<g>
								<defs>
									<path id="SVGID_35_" d="M400.001,30.746c203.935,0,369.253,165.319,369.253,369.255
										c0,203.935-165.318,369.253-369.253,369.253c-203.936,0-369.255-165.318-369.255-369.253
										C30.746,196.065,196.065,30.746,400.001,30.746z"/>
								</defs>
								<clipPath id="SVGID_36_">
									<use xlink:href="#SVGID_35_"  overflow="visible"/>
								</clipPath>
								
									<radialGradient id="SVGID_37_" cx="2036.0156" cy="-1156.1143" r="1474.7609" gradientTransform="matrix(0.25 0 0 -0.25 -109.6602 111.54)" gradientUnits="userSpaceOnUse">
									<stop  offset="0" style="stop-color:#263238;stop-opacity:0.2"/>
									<stop  offset="1" style="stop-color:#263238;stop-opacity:0"/>
								</radialGradient>
								<path clip-path="url(#SVGID_36_)" fill="url(#SVGID_37_)" d="M382.503,768.795l87.945-328.146l74.938,43.272
									L382.503,768.795z"/>
							</g>
							<g>
								<defs>
									<path id="SVGID_38_" d="M400.001,30.746c203.935,0,369.253,165.319,369.253,369.255
										c0,203.935-165.318,369.253-369.253,369.253c-203.936,0-369.255-165.318-369.255-369.253
										C30.746,196.065,196.065,30.746,400.001,30.746z"/>
								</defs>
								<clipPath id="SVGID_39_">
									<use xlink:href="#SVGID_38_"  overflow="visible"/>
								</clipPath>
								<g clip-path="url(#SVGID_39_)">
									<path fill="#F1F1F1" d="M400.001,232.157c92.706,0,167.842,75.145,167.842,167.844
										c0,92.706-75.136,167.842-167.842,167.842c-92.699,0-167.844-75.136-167.844-167.842
										C232.157,307.302,307.302,232.157,400.001,232.157z"/>
									<path fill="#4285F4" d="M400.001,265.726c74.152,0,134.273,60.114,134.273,134.275
										c0,74.152-60.121,134.273-134.273,134.273c-74.161,0-134.275-60.121-134.275-134.273
										C265.726,325.84,325.84,265.726,400.001,265.726z"/>
								</g>
							</g>
							<g>
								<defs>
									<path id="SVGID_40_" d="M400.001,30.746c203.935,0,369.253,165.319,369.253,369.255
										c0,203.935-165.318,369.253-369.253,369.253c-203.936,0-369.255-165.318-369.255-369.253
										C30.746,196.065,196.065,30.746,400.001,30.746z"/>
								</defs>
								<clipPath id="SVGID_41_">
									<use xlink:href="#SVGID_40_"  overflow="visible"/>
								</clipPath>
								<g clip-path="url(#SVGID_41_)">
									<path fill="#3E2723" fill-opacity="0.2" d="M400.001,227.961c-92.691,0-167.844,75.152-167.844,167.844v4.196
										c0-92.691,75.152-167.844,167.844-167.844h369.253v-4.196H400.001z"/>
									<path fill="#FFFFFF" fill-opacity="0.1" d="M545.191,483.922c-29.045,50.091-83.135,83.921-145.19,83.921
										c-62.105,0-116.188-33.83-145.225-83.921h-0.172L30.746,99.9v4.195l223.899,384.022h0.173
										c29.036,50.091,83.126,83.921,145.224,83.921c62.063,0,116.137-33.782,145.182-83.921h0.213v-4.196H545.191z"/>
									<path opacity="0.1" fill="#3E2723" enable-background="new    " d="M404.196,232.157c-0.713,0-1.385,0.082-2.098,0.124
										c91.723,1.139,165.744,75.742,165.744,167.72c0,91.984-74.021,166.58-165.744,167.711c0.713,0,1.385,0.131,2.098,0.131
										c92.69,0,167.843-75.152,167.843-167.842C572.039,307.31,496.887,232.157,404.196,232.157z"/>
									<path fill="#FFFFFF" fill-opacity="0.2" d="M546.863,489.494c14.259-24.668,22.521-53.204,22.521-83.74
										c0-17.711-2.754-34.75-7.835-50.738c3.983,14.351,6.294,29.413,6.294,45.018c0,30.553-8.261,59.089-22.521,83.758
										l0.064,0.163L382.249,769.287h4.867l159.828-279.612L546.863,489.494z"/>
								</g>
							</g>
							<g>
								<defs>
									<path id="SVGID_42_" d="M400.001,30.746c203.935,0,369.253,165.319,369.253,369.255
										c0,203.935-165.318,369.253-369.253,369.253c-203.936,0-369.255-165.318-369.255-369.253
										C30.746,196.065,196.065,30.746,400.001,30.746z"/>
								</defs>
								<clipPath id="SVGID_43_">
									<use xlink:href="#SVGID_42_"  overflow="visible"/>
								</clipPath>
								<g clip-path="url(#SVGID_43_)">
									<path fill="#FFFFFF" fill-opacity="0.2" d="M400.001,34.942c203.214,0,368.073,164.188,369.22,367.156
										c0-0.722,0.033-1.377,0.033-2.098c0-203.929-165.318-369.255-369.253-369.255c-203.928,0-369.255,165.326-369.255,369.255
										c0,0.721,0.041,1.376,0.041,2.098C31.918,199.13,196.786,34.942,400.001,34.942z"/>
									<path fill="#3E2723" fill-opacity="0.15" d="M400.001,765.058c203.214,0,368.073-164.203,369.22-367.155
										c0,0.713,0.033,1.385,0.033,2.099c0,203.935-165.318,369.253-369.253,369.253c-203.928,0-369.255-165.318-369.255-369.253
										c0-0.714,0.041-1.386,0.041-2.099C31.918,600.854,196.786,765.058,400.001,765.058z"/>
								</g>
							</g>
							
								<radialGradient id="SVGID_44_" cx="426.8184" cy="-79.876" r="2966.5525" gradientTransform="matrix(0.25 0 0 -0.25 34.3398 111.54)" gradientUnits="userSpaceOnUse">
								<stop  offset="0" style="stop-color:#FFFFFF;stop-opacity:0.1"/>
								<stop  offset="1" style="stop-color:#FFFFFF;stop-opacity:0"/>
							</radialGradient>
							<path fill="url(#SVGID_44_)" d="M400.001,30.746c203.935,0,369.253,165.319,369.253,369.255
								c0,203.935-165.318,369.253-369.253,369.253c-203.936,0-369.255-165.318-369.255-369.253
								C30.746,196.065,196.065,30.746,400.001,30.746z"/>
							<path fill="none" d="M-2.822-2.822h805.646v805.644H-2.822V-2.822z"/>
						</g>
					</g>
				</g>
			</g>
		</g>
	</g>
</g>
</svg>
